<?xml version="1.0" encoding="UTF-8" standalone="no"?>
<svg
   xmlns:dc="http://purl.org/dc/elements/1.1/"
   xmlns:cc="http://creativecommons.org/ns#"
   xmlns:rdf="http://www.w3.org/1999/02/22-rdf-syntax-ns#"
   xmlns:svg="http://www.w3.org/2000/svg"
   xmlns="http://www.w3.org/2000/svg"
   xmlns:sodipodi="http://sodipodi.sourceforge.net/DTD/sodipodi-0.dtd"
   xmlns:inkscape="http://www.inkscape.org/namespaces/inkscape"
   inkscape:version="1.0 (4035a4fb49, 2020-05-01)"
   sodipodi:docname="accuweather.svg"
   id="svg10"
   version="1.1"
   viewBox="0 0 189 27"
   height="27"
   width="189">
  <metadata
     id="metadata16">
    <rdf:RDF>
      <cc:Work
         rdf:about="">
        <dc:format>image/svg+xml</dc:format>
        <dc:type
           rdf:resource="http://purl.org/dc/dcmitype/StillImage" />
      </cc:Work>
    </rdf:RDF>
  </metadata>
  <defs
     id="defs14" />
  <sodipodi:namedview
     inkscape:current-layer="svg10"
     inkscape:window-maximized="1"
     inkscape:window-y="-8"
     inkscape:window-x="82"
     inkscape:cy="-12.38201"
     inkscape:cx="90.553513"
     inkscape:zoom="1.5039683"
     showgrid="false"
     id="namedview12"
     inkscape:window-height="1057"
     inkscape:window-width="1830"
     inkscape:pageshadow="2"
     inkscape:pageopacity="0"
     guidetolerance="10"
     gridtolerance="10"
     objecttolerance="10"
     borderopacity="1"
     bordercolor="#666666"
     pagecolor="#ffffff" />
  <g
     inkscape:export-ydpi="480"
     inkscape:export-xdpi="480"
     transform="translate(5.817942,35.406332)"
     id="g8"
     fill-rule="nonzero"
     fill="none">
    <path
       id="path2"
       d="m 183.058,22.739 v -6.864 c 0,-1.4 0.293,-2.342 0.879,-2.83 0.585,-0.488 1.561,-0.716 2.863,-0.716 h 1.269 v -3.09 h -1.074 c -0.976,0 -1.822,0.13 -2.505,0.422 a 4.054,4.054 0 0 0 -1.66,1.237 l -0.65,-1.66 h -2.44 v 13.5 h 3.318 z M 171.28,11.743 c 0.944,0 1.66,0.26 2.148,0.814 0.488,0.553 0.748,1.268 0.813,2.147 h -6.117 c 0.065,-0.911 0.326,-1.627 0.814,-2.147 0.488,-0.553 1.204,-0.814 2.147,-0.814 z m 2.766,6.93 c -0.228,0.487 -0.553,0.878 -0.976,1.138 -0.423,0.293 -0.944,0.423 -1.627,0.423 h -0.228 c -1.008,0 -1.757,-0.293 -2.277,-0.846 -0.52,-0.553 -0.814,-1.301 -0.879,-2.18 h 9.469 v -1.366 c 0,-2.114 -0.553,-3.806 -1.66,-5.042 -1.106,-1.269 -2.635,-1.887 -4.555,-1.887 h -0.228 c -1.92,0 -3.449,0.618 -4.588,1.887 -1.138,1.236 -1.692,2.863 -1.692,4.847 v 0.878 c 0,0.976 0.163,1.855 0.456,2.668 a 5.877,5.877 0 0 0 1.269,2.082 5.83,5.83 0 0 0 2.017,1.366 c 0.814,0.325 1.692,0.488 2.7,0.488 h 0.229 c 1.269,0 2.342,-0.26 3.253,-0.748 0.911,-0.488 1.66,-1.236 2.213,-2.245 l -2.896,-1.464 z m -20.271,4.066 v -7.873 c 0.033,-0.91 0.26,-1.659 0.716,-2.244 0.455,-0.586 1.139,-0.879 1.985,-0.879 h 0.325 c 0.748,0 1.334,0.228 1.757,0.716 0.456,0.455 0.65,1.236 0.65,2.31 v 8.002 h 3.32 v -8.588 c 0,-1.594 -0.423,-2.863 -1.302,-3.838 -0.878,-0.976 -2.017,-1.464 -3.481,-1.464 h -0.39 c -0.717,0 -1.4,0.13 -2.018,0.423 a 5.332,5.332 0 0 0 -1.627,1.17 V 3.84 h -3.319 v 18.9 h 3.384 z m -8.688,-2.96 c -0.227,-0.196 -0.325,-0.554 -0.325,-1.074 v -6.799 h 3.254 V 9.239 h -3.254 v -2.96 h -2.83 l -0.359,2.96 h -2.212 v 2.667 h 2.115 v 6.831 c 0,1.236 0.293,2.212 0.878,2.928 0.586,0.716 1.595,1.074 2.994,1.074 h 2.635 V 20.07 h -1.92 c -0.455,0 -0.78,-0.098 -0.976,-0.293 z m -13.828,0.52 c -0.683,0 -1.204,-0.13 -1.562,-0.39 -0.358,-0.26 -0.553,-0.651 -0.553,-1.14 v -0.097 c 0,-0.488 0.195,-0.91 0.618,-1.236 0.39,-0.325 1.106,-0.488 2.148,-0.488 h 2.472 v 0.488 c 0,0.976 -0.26,1.692 -0.78,2.147 -0.521,0.456 -1.237,0.716 -2.083,0.716 z m -0.65,2.797 c 0.878,0 1.626,-0.162 2.31,-0.488 0.683,-0.325 1.236,-0.813 1.691,-1.496 l 0.553,1.66 h 2.506 v -8.85 c 0,-1.658 -0.488,-2.927 -1.464,-3.773 -0.977,-0.845 -2.343,-1.268 -4.068,-1.268 h -0.325 c -1.562,0 -2.798,0.325 -3.71,0.943 -0.91,0.65 -1.496,1.431 -1.756,2.342 l 2.928,1.204 c 0.163,-0.456 0.456,-0.813 0.846,-1.139 0.39,-0.292 0.944,-0.455 1.627,-0.455 h 0.325 c 0.781,0 1.367,0.195 1.725,0.553 0.39,0.39 0.553,0.91 0.553,1.594 v 0.683 h -2.408 c -1.985,0 -3.481,0.39 -4.523,1.171 -1.04,0.78 -1.561,1.822 -1.561,3.09 v 0.196 c 0,1.268 0.39,2.244 1.17,2.992 0.782,0.716 1.888,1.106 3.32,1.106 h 0.26 V 23.096 Z M 118.114,11.743 c 0.943,0 1.659,0.26 2.147,0.814 0.488,0.553 0.748,1.268 0.813,2.147 h -6.117 c 0.065,-0.911 0.326,-1.627 0.814,-2.147 0.488,-0.553 1.204,-0.814 2.147,-0.814 z m 2.765,6.93 c -0.228,0.487 -0.553,0.878 -0.976,1.138 -0.423,0.293 -0.943,0.423 -1.627,0.423 h -0.228 c -1.008,0 -1.757,-0.293 -2.277,-0.846 -0.52,-0.553 -0.814,-1.301 -0.879,-2.18 h 9.469 v -1.366 c 0,-2.114 -0.553,-3.806 -1.66,-5.042 -1.106,-1.269 -2.635,-1.887 -4.555,-1.887 h -0.26 c -1.92,0 -3.45,0.618 -4.588,1.887 -1.139,1.236 -1.692,2.863 -1.692,4.847 v 0.878 c 0,0.976 0.163,1.855 0.455,2.668 a 5.877,5.877 0 0 0 1.27,2.082 5.83,5.83 0 0 0 2.017,1.366 c 0.813,0.325 1.692,0.488 2.7,0.488 h 0.228 c 1.27,0 2.343,-0.26 3.254,-0.748 0.911,-0.488 1.66,-1.236 2.213,-2.245 l -2.864,-1.464 z m -25.119,4.065 3.97,-13.76 3.774,13.76 h 3.026 L 111.964,4.065 V 3.84 h -3.254 l -3.58,13.37 -3.513,-13.37 h -3.58 L 94.36,17.436 90.878,3.84 h -3.416 v 0.227 l 5.206,18.673 h 3.091 z M 74.448,9.238 v 8.555 c 0,1.594 0.423,2.863 1.301,3.839 0.879,0.975 2.018,1.463 3.482,1.463 h 0.358 c 0.813,0 1.561,-0.162 2.212,-0.488 0.684,-0.325 1.237,-0.813 1.692,-1.43 l 0.553,1.56 h 2.473 v -13.5 h -3.286 v 7.873 c -0.033,0.91 -0.26,1.659 -0.748,2.244 -0.489,0.586 -1.14,0.879 -2.018,0.879 h -0.325 c -0.716,0 -1.302,-0.228 -1.757,-0.716 -0.456,-0.455 -0.684,-1.236 -0.684,-2.31 V 9.206 H 74.448 V 9.239 Z M 70.803,9.791 C 69.893,9.205 68.721,8.912 67.257,8.912 h -0.228 c -1.92,0 -3.449,0.553 -4.588,1.692 -1.139,1.138 -1.692,2.635 -1.692,4.522 v 1.724 c 0,1.886 0.553,3.415 1.692,4.521 1.139,1.139 2.636,1.692 4.588,1.692 h 0.228 c 1.334,0 2.44,-0.26 3.319,-0.78 0.878,-0.521 1.561,-1.27 2.082,-2.31 l -2.733,-1.53 a 3.17,3.17 0 0 1 -0.976,1.27 C 68.526,20.038 67.973,20.2 67.257,20.2 h -0.228 c -1.041,0 -1.79,-0.325 -2.278,-0.943 -0.488,-0.618 -0.715,-1.431 -0.715,-2.44 V 15.16 c 0,-1.008 0.227,-1.822 0.715,-2.44 0.488,-0.618 1.237,-0.943 2.278,-0.943 h 0.228 c 0.716,0 1.301,0.163 1.724,0.488 0.423,0.325 0.749,0.78 0.976,1.334 l 2.864,-1.367 c -0.423,-1.008 -1.107,-1.854 -2.018,-2.44 z m -13.308,0 C 56.585,9.205 55.413,8.912 53.949,8.912 h -0.228 c -1.92,0 -3.449,0.553 -4.588,1.692 -1.139,1.138 -1.692,2.635 -1.692,4.522 v 1.724 c 0,1.886 0.553,3.415 1.692,4.521 1.139,1.139 2.636,1.692 4.588,1.692 h 0.228 c 1.334,0 2.44,-0.26 3.319,-0.78 0.878,-0.521 1.561,-1.27 2.082,-2.31 l -2.733,-1.53 a 3.17,3.17 0 0 1 -0.976,1.27 C 55.218,20.038 54.665,20.2 53.949,20.2 h -0.228 c -1.041,0 -1.79,-0.325 -2.278,-0.943 -0.488,-0.618 -0.715,-1.431 -0.715,-2.44 V 15.16 c 0,-1.008 0.227,-1.822 0.715,-2.44 0.488,-0.618 1.237,-0.943 2.278,-0.943 h 0.228 c 0.716,0 1.301,0.163 1.724,0.488 0.423,0.325 0.749,0.78 0.976,1.334 l 2.864,-1.367 C 59.057,11.224 58.407,10.378 57.495,9.792 Z M 38.557,8.783 40.803,15.745 H 36.28 Z M 36.963,3.84 30.683,22.512 v 0.228 h 3.287 l 1.301,-3.937 h 6.54 l 1.27,3.937 h 3.448 V 22.512 L 40.25,3.839 h -3.286 z"
       fill="#ffffff" />
    <path
       id="path4"
       d="m 13.438,22.771 c -5.14,0 -9.338,-4.196 -9.338,-9.336 0,-5.14 4.197,-9.304 9.338,-9.304 5.141,0 9.306,4.197 9.306,9.304 0,5.172 -4.165,9.336 -9.306,9.336 z M 26.876,13.402 23.818,10.637 25.054,6.701 21.019,5.823 20.141,1.789 16.204,3.058 13.406,0 10.64,3.058 6.703,1.822 5.824,5.855 1.79,6.734 3.059,10.67 0,13.467 l 3.059,2.766 -1.237,3.936 4.035,0.878 0.878,4.034 3.937,-1.269 2.799,3.058 2.765,-3.058 3.937,1.236 0.879,-4.034 4.035,-0.91 -1.27,-3.937 3.06,-2.765 z"
       fill="#f05514" />
    <path
       id="path6"
       d="m 7.549,7.58 a 8.328,8.328 0 0 1 11.779,0 8.323,8.323 0 0 1 0,11.775 8.328,8.328 0 0 1 -11.78,0 C 4.295,16.102 4.295,10.8 7.548,7.58"
       fill="#f05514" />
  </g>
  <g
     inkscape:export-ydpi="480"
     inkscape:export-xdpi="480"
     style="fill:none;fill-rule:evenodd;stroke:none"
     stroke-width="9.59322"
     transform="matrix(0.19600213,0,0,0.19600213,35.12808,-8.6132724)"
     id="Partly-Sunny">
    <path
       stroke="#ff8700"
       id="Path"
       d="M 143.8983,0 V 47.966102" />
    <path
       stroke="#ff8700"
       id="path846"
       d="M 0,143.8983 H 47.966102" />
    <path
       stroke="#ff8700"
       id="path848"
       d="M 211.72237,76.074237 245.63441,42.162203" />
    <path
       stroke="#ff8700"
       id="path850"
       d="M 76.074237,76.074237 42.162203,42.162203" />
    <path
       stroke="#ff8700"
       id="path852"
       d="M 42.162203,245.63441 76.074237,211.72237" />
    <path
       stroke="#ff8700"
       id="path854"
       d="M 220.35627,138.14237 C 217.69004,102.41186 190.65511,73.280849 155.22272,67.958864 119.79032,62.636878 85.390362,82.540301 72.345068,115.91093 59.299774,149.28155 71.080992,187.23819 100.72881,207.35746" />
    <path
       stroke="#bababa"
       id="path856"
       d="m 239.83051,148.69491 h -7.53068 c -13.65045,-16.29203 -35.74376,-22.80268 -56.04771,-16.51662 -20.30396,6.28605 -34.85365,24.14128 -36.9106,45.29629 h -9.83305 c -15.89456,0 -28.77966,12.88509 -28.77966,28.77966 0,15.89456 12.8851,28.77966 28.77966,28.77966 H 239.83051 C 263.67236,235.0339 283,215.70626 283,191.86441 v 0 c 0,-23.84186 -19.32764,-43.1695 -43.16949,-43.1695 z" />
  </g>
</svg>
